# This file uses centimeters as units for non-parametric coordinates.

mtllib Bridge_center.mtl
g default
v 16.000000 0.000000 8.000000
v 16.000000 0.000000 -64.000000
v 16.000000 8.000000 8.000000
v 16.000000 8.000000 -64.000000
v -8.000000 8.000000 8.000000
v -8.000000 8.000000 -64.000000
v -8.000000 0.000000 8.000000
v -8.000000 0.000000 -64.000000
vt 0.378229 0.628408
vt 0.012690 0.629907
vt 0.012538 0.585329
vt 0.378078 0.583830
vt 0.970085 0.962205
vt 0.416041 0.962730
vt 0.415866 0.778048
vt 0.969910 0.777524
vt 0.499924 0.583331
vt 0.865464 0.581832
vt 0.865615 0.626410
vt 0.500076 0.627909
vt 0.987462 0.625910
vt 0.987310 0.581332
vn 1.000000 0.000000 0.000000
vn 1.000000 0.000000 0.000000
vn 1.000000 0.000000 0.000000
vn 1.000000 0.000000 0.000000
vn 0.000000 1.000000 0.000000
vn 0.000000 1.000000 0.000000
vn 0.000000 1.000000 0.000000
vn 0.000000 1.000000 0.000000
vn -1.000000 0.000000 -0.000000
vn -1.000000 0.000000 -0.000000
vn -1.000000 0.000000 -0.000000
vn -1.000000 0.000000 -0.000000
vn 0.000000 0.000000 -1.000000
vn 0.000000 0.000000 -1.000000
vn 0.000000 0.000000 -1.000000
vn 0.000000 0.000000 -1.000000
vn -0.000000 0.000000 1.000000
vn -0.000000 0.000000 1.000000
vn -0.000000 0.000000 1.000000
vn -0.000000 0.000000 1.000000
s off
g centerBridge group19
usemtl lambert4SG
f 1/1/1 2/2/2 4/3/3 3/4/4
f 3/5/5 4/6/6 6/7/7 5/8/8
f 5/9/9 6/10/10 8/11/11 7/12/12
f 2/13/13 8/11/14 6/10/15 4/14/16
f 7/12/17 1/1/18 3/4/19 5/9/20
